<mxfile host="app.diagrams.net" modified="2024-03-21T07:59:01.055Z" agent="Mozilla/5.0 (Macintosh; Intel Mac OS X 10_15_7) AppleWebKit/537.36 (KHTML, like Gecko) Chrome/122.0.0.0 Safari/537.36" version="24.0.7" etag="oy-Az4OUhBFGjRm-EsSJ" type="github">
  <diagram name="第 1 页" id="f9GP6RsC8OmGzVit2ie5">
    <mxGraphModel>
      <root>
        <mxCell id="0" />
        <mxCell id="1" parent="0" />
      </root>
    </mxGraphModel>
  </diagram>
</mxfile>
